<?xml version="1.0" encoding="utf-8"?>
<!-- Generator: Adobe Illustrator 28.1.0, SVG Export Plug-In . SVG Version: 6.00 Build 0)  -->
<svg version="1.1" id="Layer_1" xmlns="http://www.w3.org/2000/svg" xmlns:xlink="http://www.w3.org/1999/xlink" x="0px" y="0px"
	 viewBox="0 0 180 180" style="enable-background:new 0 0 180 180;" xml:space="preserve">
<style type="text/css">
	.st0{fill:url(#SVGID_1_);}
	.st1{fill:#FFFFFF;}
</style>
<g>
	
		<linearGradient id="SVGID_1_" gradientUnits="userSpaceOnUse" x1="44.6943" y1="-12.9398" x2="48.7587" y2="208.5663" gradientTransform="matrix(-1 0 0 1 177.1429 0)">
		<stop  offset="0" style="stop-color:#DA2128"/>
		<stop  offset="0.5225" style="stop-color:#ED6C30"/>
		<stop  offset="1" style="stop-color:#F05123"/>
	</linearGradient>
	<path class="st0" d="M175.98,15.98l-58.94,70.63L180,164.3h-52.41l-47.52-59.66V73.14l47.52-57.16H175.98z"/>
	<path class="st1" d="M35.34,54.68c-5.29-2.17-11.92-3.06-19.9-3.06H0V15.66h18.92c11.82,0,22.33,1.5,31.54,4.18
		c6.96,2.03,13.52,5.4,19.68,9.97c6.16,4.56,11.49,10.11,15.99,16.56c1.58,2.25,3.2,4.61,4.52,7.04L75.8,71.51v34.72l15.6,19.81
		c-1.42,2.71-3.1,5.33-4.85,7.84c-7.18,10.29-16.23,17.95-27.07,22.95c-10.84,5-23.88,7.52-39.03,7.52H0v-34.98h13.7
		c8.77,0,15.9-1.19,21.37-3.4c5.47-2.21,10.28-5.97,14.41-11.19c5.65-7.03,8.48-15.14,8.48-24.27c0-9.71-2.94-18.11-8.81-25.36
		C45.24,60.28,40.63,56.85,35.34,54.68z"/>
</g>
</svg>
